<svg height="512pt" viewBox="0 0 512 512" width="512pt" xmlns="http://www.w3.org/2000/svg"><path d="m512 256c0 141.386719-114.613281 256-256 256s-256-114.613281-256-256 114.613281-256 256-256 256 114.613281 256 256zm0 0" fill="#382b73"/><path d="m477.460938 256c0 122.308594-99.152344 221.460938-221.460938 221.460938s-221.460938-99.152344-221.460938-221.460938 99.152344-221.460938 221.460938-221.460938 221.460938 99.152344 221.460938 221.460938zm0 0" fill="#473080"/><path d="m417.703125 351.773438c0-.0625 0-.0625 0-.128907 0-.253906 0-.578125 0-.835937 0-.253906-.0625-.511719-.0625-.769532 0-.066406 0-.128906 0-.195312-.066406-.578125-.128906-1.21875-.257813-1.800781-1.738281-9.066407-9.710937-15.886719-19.230468-15.886719-5.019532 0-9.585938 1.867188-12.996094 4.953125l-26.371094-14.859375.257813-91.914062h.066406c2.378906 0 4.628906-.449219 6.75-1.15625.582031-.195313 1.160156-.453126 1.738281-.773438.835938-.386719 1.671875-.902344 2.445313-1.414062.257812-.195313.515625-.386719.769531-.515626 4.761719-3.601562 7.847656-9.261718 7.847656-15.695312 0-.0625 0-.0625 0-.128906 0-.257813 0-.578125 0-.835938 0-.257812-.0625-.515625-.0625-.769531 0-.066406 0-.128906 0-.195313-.066406-.578124-.128906-1.222656-.257812-1.800781-1.738282-9.070312-9.710938-15.886719-19.230469-15.886719-7.269531 0-13.574219 3.921876-16.984375 9.777344l-80.144531-46.3125.066406-25.277344c3.023437-.964843 5.722656-2.636718 7.910156-4.824218.449219-.449219.835938-.902344 1.289063-1.414063 2.765625-3.410156 4.5-7.71875 4.5-12.480469 0-.320312 0-.644531 0-.964843 0-.257813-.0625-.515625-.0625-.707031 0-.066407 0-.128907 0-.191407-.964844-9.972656-9.328125-17.753906-19.492188-17.753906-9.582031 0-17.492187 6.882813-19.230468 15.886719-.066407.320312-.128907.578125-.128907.902344-.0625.320312-.0625.578124-.128906.898437v.191406c0 .257813-.0625.515625-.0625.710938v.898437.066406c0 2.699219.578125 5.273438 1.542969 7.652344 1.222656 2.960938 3.152344 5.46875 5.59375 7.527344.710937.578125 1.480468 1.15625 2.316406 1.605469.257812.195312.515625.324219.835938.453125 1.289062.707031 2.636718 1.21875 4.054687 1.605468l-.066406 25.214844-80.402344 46.761719c-3.28125-6.175781-9.777344-10.355469-17.300781-10.355469-9.585938 0-17.5625 6.882813-19.234375 15.886719-.0625.324219-.128907.578125-.128907.902344-.0625.320312-.0625.578125-.125.898437v.195313c0 .257812-.066406.511719-.066406.769531v.902344.0625c0 6.433594 3.085938 12.15625 7.847656 15.695312.257813.191406.515626.386719.773438.515625.769531.511719 1.605469 1.027344 2.441406 1.414063.578125.257812 1.160156.515625 1.738282.773437 2.121093.769531 4.375 1.15625 6.753906 1.15625h.257812l-.453125 92.6875-25.855469 14.730469c-3.539062-3.34375-8.296874-5.402344-13.507812-5.402344-9.582031 0-17.558594 6.882813-19.230469 15.886719-.128906.578125-.195312 1.222656-.257812 1.800781v.128906c0 .257813-.066407.515626-.066407.769532v.773437.191407c0 5.726562 2.445313 10.9375 6.433594 14.472656 3.472656 3.152344 8.105469 5.082031 13.183594 5.082031 2.1875 0 4.3125-.386719 6.304688-1.027344.386718-.128906.773437-.257812 1.160156-.453125.382812-.128906.707031-.320312 1.027344-.449218 6.5625-3.152344 11.128906-9.90625 11.128906-17.6875 0-.066407 0-.128907 0-.191407 0-.257812 0-.515625 0-.773437 0-.257813-.066406-.515625-.066406-.773438 0-.0625 0-.128906 0-.128906-.0625-.578125-.128907-1.21875-.257813-1.800781-.0625-.257813-.128906-.511719-.128906-.707031l25.921875-14.792969 80.339844 46.375c-1.03125 1.800781-1.800782 3.859375-2.1875 5.984375-.066407.320312-.128907.578125-.128907.898437-.0625.320313-.0625.578125-.128906.902344v.191406c0 .257813-.0625.515625-.0625.707031v.902344.0625c0 2.703125.578125 5.273438 1.542969 7.65625 1.222656 2.957032 3.152344 5.464844 5.59375 7.523438.710937.578125 1.480468 1.160156 2.316406 1.609375.257812.191406.515625.320312.835938.449219 2.765624 1.480468 5.984374 2.378906 9.328124 2.378906 5.402344 0 10.289063-2.1875 13.828126-5.722656.449218-.449219.835937-.902344 1.285156-1.414063 2.769531-3.410156 4.503906-7.71875 4.503906-12.480469 0-.320312 0-.644531 0-.964844 0-.257812-.0625-.515624-.0625-.707031 0-.0625 0-.128906 0-.191406-.257812-2.960937-1.222656-5.726563-2.636719-8.105469l79.949219-46.632812 26.050781 14.730468c-.257812 1.027344-.449219 2.121094-.578125 3.214844v.191406c0 .257813-.066406.515626-.066406.707032v.964844c0 4.761718 1.671875 9.070312 4.503906 12.480468.386719.515625.835938.964844 1.285156 1.414063 1.289063 1.285156 2.703126 2.378906 4.3125 3.28125.0625.0625.191407.128906.253907.128906.582031.320313 1.222656.640625 1.867187.898437.386719.128907.773438.324219 1.15625.453126 1.996094.640624 4.054688 1.027343 6.304688 1.027343 5.273437 0 10.035156-2.058593 13.507812-5.402343 3.667969-3.667969 5.980469-8.683594 5.980469-14.28125zm0 0" fill="#382b73"/><path d="m256 258.636719 103.042969-59.882813-.320313 118.03125-103.042968 59.882813zm0 0" fill="#1caee4"/><path d="m153.277344 199.398438 103.109375-59.949219 102.65625 59.304687-103.042969 59.882813zm0 0" fill="#27c1e6"/><path d="m256 258.636719-.320312 118.03125-102.722657-59.304688.320313-117.964843zm0 0" fill="#009add"/><path d="m256 381.554688c-3.085938 0-5.597656-2.507813-5.597656-5.660157l.386718-277.226562c0-3.085938 2.507813-5.59375 5.597657-5.59375 3.085937 0 5.59375 2.507812 5.59375 5.660156l-.382813 277.226563c0 3.085937-2.511718 5.59375-5.597656 5.59375zm0 0" fill="#fff"/><path d="m256 264.296875c-.964844 0-1.929688-.257813-2.832031-.769531l-102.65625-59.304688c-2.699219-1.546875-3.601563-5.019531-2.058594-7.65625 1.542969-2.699218 5.019531-3.601562 7.65625-2.058594l99.890625 57.632813 100.277344-58.273437c2.703125-1.546876 6.109375-.644532 7.71875 2.054687 1.542968 2.703125.644531 6.113281-2.058594 7.71875l-103.042969 59.886719c-.964843.511718-1.929687.769531-2.894531.769531zm0 0" fill="#fff"/><path d="m361.875 197.980469-103.042969 59.949219c-.902343.515624-1.867187.773437-2.832031.773437s-1.929688-.257813-2.832031-.773437l-102.65625-59.304688c-.898438-.515625-1.605469-1.222656-2.058594-2.058594-1.542969 2.703125-.640625 6.109375 2.058594 7.65625l102.722656 59.304688c.898437.511718 1.863281.769531 2.828125.769531s1.929688-.257813 2.832031-.769531l103.042969-59.886719c2.703125-1.542969 3.601562-5.015625 2.058594-7.652344-.515625.773438-1.222656 1.480469-2.121094 1.992188zm0 0" fill="#d1d3d4"/><path d="m113.59375 345.472656c-1.929688 0-3.859375-1.03125-4.890625-2.832031-1.542969-2.699219-.578125-6.109375 2.121094-7.652344l142.472656-81.175781c1.738281-.964844 3.859375-.964844 5.535156 0l142.019531 80.339844c2.703126 1.542968 3.667969 4.953125 2.125 7.652344-1.546874 2.703124-4.953124 3.667968-7.65625 2.121093l-139.257812-78.792969-139.640625 79.566407c-.898437.515625-1.863281.773437-2.828125.773437zm0 0" fill="#fff"/><path d="m113.59375 345.472656c.964844 0 1.929688-.257812 2.765625-.707031l139.703125-79.566406 139.257812 78.792969c2.445313 1.351562 5.46875.707031 7.140626-1.351563-.449219-.515625-.964844-1.027344-1.609376-1.351563l-142.019531-80.464843c-1.738281-.964844-3.859375-.964844-5.535156 0l-142.472656 81.171875c-.640625.386718-1.15625.839844-1.605469 1.351562 1.09375 1.351563 2.699219 2.125 4.375 2.125zm0 0" fill="#d1d3d4"/><path d="m293.5625 258.636719c0 20.746093-16.816406 37.5625-37.5625 37.5625s-37.5625-16.816407-37.5625-37.5625c0-20.746094 16.816406-37.5625 37.5625-37.5625s37.5625 16.816406 37.5625 37.5625zm0 0" fill="#e6e7e8"/><path d="m268.691406 243.191406c0-7-5.671875-12.671875-12.671875-12.671875-6.996093 0-12.671875 5.671875-12.671875 12.671875s5.675782 12.671875 12.671875 12.671875c7 0 12.671875-5.671875 12.671875-12.671875zm0 0" fill="#fff"/><path d="m256 281.535156c-18.203125 0-33.445312-12.992187-36.855469-30.230468-.449219 2.378906-.707031 4.824218-.707031 7.398437 0 20.773437 16.851562 37.5625 37.5625 37.5625s37.5625-16.851563 37.5625-37.5625c0-2.511719-.257812-4.953125-.707031-7.398437-3.410157 17.238281-18.589844 30.230468-36.855469 30.230468zm0 0" fill="#d1d3d4"/><path d="m417.703125 339.875c0 10.835938-8.78125 19.617188-19.617187 19.617188-10.835938 0-19.617188-8.78125-19.617188-19.617188s8.78125-19.617188 19.617188-19.617188c10.835937 0 19.617187 8.78125 19.617187 19.617188zm0 0" fill="#fff"/><path d="m398.085938 352.097656c-9.582032 0-17.496094-6.882812-19.230469-15.886718-.257813 1.21875-.324219 2.441406-.324219 3.664062 0 10.804688 8.75 19.617188 19.621094 19.617188 10.804687 0 19.617187-8.746094 19.617187-19.617188 0-1.285156-.128906-2.507812-.324219-3.664062-1.800781 9.003906-9.773437 15.886718-19.359374 15.886718zm0 0" fill="#d1d3d4"/><path d="m275.617188 376.667969c0 10.835937-8.78125 19.617187-19.617188 19.617187s-19.617188-8.78125-19.617188-19.617187c0-10.835938 8.78125-19.617188 19.617188-19.617188s19.617188 8.78125 19.617188 19.617188zm0 0" fill="#fff"/><path d="m256 388.886719c-9.582031 0-17.496094-6.878907-19.230469-15.886719-.257812 1.222656-.324219 2.445312-.324219 3.667969 0 10.804687 8.75 19.617187 19.617188 19.617187 10.871094 0 19.621094-8.746094 19.621094-19.617187 0-1.285157-.128906-2.507813-.324219-3.667969-1.800781 9.070312-9.777344 15.886719-19.359375 15.886719zm0 0" fill="#d1d3d4"/><path d="m275.640625 98.730469c0-10.835938-8.785156-19.617188-19.621094-19.617188-10.832031 0-19.617187 8.78125-19.617187 19.617188 0 10.835937 8.785156 19.617187 19.617187 19.617187 10.835938 0 19.621094-8.78125 19.621094-19.617187zm0 0" fill="#fff"/><path d="m256 110.953125c-9.582031 0-17.496094-6.878906-19.230469-15.886719-.257812 1.222656-.324219 2.445313-.324219 3.667969 0 10.804687 8.75 19.617187 19.617188 19.617187 10.871094 0 19.621094-8.746093 19.621094-19.617187 0-1.289063-.128906-2.507813-.324219-3.667969-1.800781 9.007813-9.777344 15.886719-19.359375 15.886719zm0 0" fill="#d1d3d4"/><path d="m378.675781 198.796875c0-10.835937-8.78125-19.617187-19.617187-19.617187-10.835938 0-19.617188 8.78125-19.617188 19.617187s8.78125 19.617187 19.617188 19.617187c10.835937 0 19.617187-8.78125 19.617187-19.617187zm0 0" fill="#fff"/><path d="m359.042969 211.039062c-9.582031 0-17.558594-6.882812-19.230469-15.886718-.257812 1.222656-.324219 2.445312-.324219 3.664062 0 10.808594 8.75 19.621094 19.621094 19.621094 10.804687 0 19.617187-8.75 19.617187-19.621094 0-1.285156-.128906-2.507812-.324218-3.664062-1.800782 9.003906-9.773438 15.886718-19.359375 15.886718zm0 0" fill="#d1d3d4"/><path d="m133.210938 339.875c0 10.835938-8.785157 19.617188-19.617188 19.617188-10.835938 0-19.621094-8.78125-19.621094-19.617188s8.785156-19.617188 19.621094-19.617188c10.832031 0 19.617188 8.78125 19.617188 19.617188zm0 0" fill="#fff"/><path d="m113.59375 352.097656c-9.585938 0-17.496094-6.882812-19.234375-15.886718-.257813 1.21875-.320313 2.441406-.320313 3.664062 0 10.804688 8.746094 19.617188 19.617188 19.617188s19.617188-8.746094 19.617188-19.617188c0-1.285156-.128907-2.507812-.320313-3.664062-1.800781 9.003906-9.777344 15.886718-19.359375 15.886718zm0 0" fill="#d1d3d4"/><path d="m172.578125 198.789062c0-10.835937-8.785156-19.621093-19.621094-19.621093-10.832031 0-19.617187 8.785156-19.617187 19.621093 0 10.832032 8.785156 19.617188 19.617187 19.617188 10.835938 0 19.621094-8.785156 19.621094-19.617188zm0 0" fill="#fff"/><path d="m152.957031 211.039062c-9.585937 0-17.496093-6.882812-19.230469-15.886718-.257812 1.222656-.324218 2.445312-.324218 3.664062 0 10.808594 8.75 19.621094 19.617187 19.621094 10.871094 0 19.621094-8.75 19.621094-19.621094 0-1.285156-.128906-2.507812-.324219-3.664062-1.800781 9.003906-9.777344 15.886718-19.359375 15.886718zm0 0" fill="#d1d3d4"/></svg>